# File created by Blade
# Date/Time:  Tue Jan 27 17:21:46 2015
#---------------------------------------------------------
:version 1.10
:name HOM
:units
  mass 1.0
  length 1.000000
  angle deg
:documentation
     Acclaim Skeleton File
:root
   axis xyz
   order TX TY TZ RX RY RZ
   position 0.000000 0.000000 0.000000
   orientation 0 0 0
:bonedata
   begin
      id 1
      name Spine_dum
      direction 0.000000 1.000000 0.000000
      length 7.539951
      axis 0.0 0.0 0.0 xyz
   end
   begin
      id 2
      name LeftUpLeg_dum
      direction 1.000000 0.000000 0.000000
      length 3.345476
      axis 0.0 0.0 0.0 xyz
   end
   begin
      id 3
      name RightUpLeg_dum
      direction -1.000000 0.000000 0.000000
      length 3.345476
      axis 0.0 0.0 0.0 xyz
   end
   begin
      id 4
      name Spine
      direction 0.000000 1.000000 0.000000
      length 0.000000
      axis 0.0 0.0 0.0 xyz
      dof rx ry rz
   end
   begin
      id 5
      name Spine_dum1
      direction 0.000000 1.000000 0.000000
      length 15.093809
      axis 0.0 0.0 0.0 xyz
   end
   begin
      id 6
      name Spine_dum2
      direction 0.000000 1.000000 0.000000
      length 9.738928
      axis 0.0 0.0 0.0 xyz
   end
   begin
      id 7
      name Spine_dum3
      direction 0.000000 1.000000 0.000000
      length 9.738928
      axis 0.0 0.0 0.0 xyz
   end
   begin
      id 8
      name Head
      direction 0.000000 1.000000 0.000000
      length 4.527550
      axis 0.0 0.0 0.0 xyz
      dof rx ry rz
   end
   begin
      id 9
      name LeftShoulder
      direction 1.000000 0.000000 0.000000
      length 7.084015
      axis 0.0 0.0 -90.0 xyz
      dof rx ry rz
   end
   begin
      id 10
      name LeftArm
      direction 1.000000 0.000000 0.000000
      length 10.259319
      axis 0.0 0.0 -90.0 xyz
      dof rx ry rz
   end
   begin
      id 11
      name LeftForeArm
      direction 1.000000 0.000000 0.000000
      length 9.896984
      axis 0.0 0.0 -90.0 xyz
      dof ry rz rx
   end
   begin
      id 12
      name LeftHand
      direction 0.000000 0.000000 0.000000
      length 0.000000
      axis 0.0 0.0 -90.0 xyz
      dof rx ry rz
   end
   begin
      id 13
      name LeftHand_dum1
      direction 0.000000 0.000000 0.000000
      length 0.000000
      axis 0.0 0.0 -90.0 xyz
   end
   begin
      id 14
      name LeftHand_dum2
      direction 1.000000 0.000000 0.000000
      length 3.937000
      axis 0.0 0.0 -90.0 xyz
   end
   begin
      id 15
      name LeftHandThumb1
      direction 0.000000 0.000000 1.000000
      length 3.937000
      axis 0.0 0.0 -90.0 xyz
      dof rx rz ry
   end
   begin
      id 16
      name RightShoulder
      direction -1.000000 0.000000 0.000000
      length 7.084015
      axis 0.0 0.0 90.0 xyz
      dof rx ry rz
   end
   begin
      id 17
      name RightArm
      direction -1.000000 0.000000 0.000000
      length 10.259319
      axis 0.0 0.0 90.0 xyz
      dof rx ry rz
   end
   begin
      id 18
      name RightForeArm
      direction -1.000000 0.000000 0.000000
      length 9.896984
      axis 0.0 0.0 90.0 xyz
      dof ry rz rx
   end
   begin
      id 19
      name RightHand
      direction 0.000000 0.000000 0.000000
      length 0.000000
      axis 0.0 0.0 90.0 xyz
      dof rx ry rz
   end
   begin
      id 20
      name RightHand_dum1
      direction 0.000000 0.000000 0.000000
      length 0.000000
      axis 0.0 0.0 90.0 xyz
   end
   begin
      id 21
      name RightHand_dum2
      direction -1.000000 0.000000 0.000000
      length 3.937000
      axis 0.0 0.0 90.0 xyz
   end
   begin
      id 22
      name RightHandThumb1
      direction 0.000000 0.000000 1.000000
      length 3.937000
      axis 0.0 0.0 90.0 xyz
      dof rx rz ry
   end
   begin
      id 23
      name LeftUpLeg
      direction 0.000000 -1.000000 0.000000
      length 19.114733
      axis 0.0 0.0 0.0 xyz
      dof rx ry rz
   end
   begin
      id 24
      name LeftLeg
      direction 0.000000 -1.000000 0.000000
      length 16.045604
      axis 0.0 0.0 0.0 xyz
      dof rx ry rz
   end
   begin
      id 25
      name LeftFoot
      direction 0.000000 -0.258819 0.965926
      length 5.543155
      axis 15.0 0.0 0.0 xyz
      dof rx ry rz
   end
   begin
      id 26
      name LeftToeBase
      direction 0.000000 0.000000 1.000000
      length 2.952750
      axis 0.0 0.0 0.0 xyz
      dof rx ry rz
   end
   begin
      id 27
      name RightUpLeg
      direction 0.000000 -1.000000 0.000000
      length 19.114733
      axis 0.0 0.0 0.0 xyz
      dof rx ry rz
   end
   begin
      id 28
      name RightLeg
      direction 0.000000 -1.000000 0.000000
      length 16.045604
      axis 0.0 0.0 0.0 xyz
      dof rx ry rz
   end
   begin
      id 29
      name RightFoot
      direction 0.000000 -0.258819 0.965926
      length 5.543155
      axis 15.0 0.0 0.0 xyz
      dof rx ry rz
   end
   begin
      id 30
      name RightToeBase
      direction 0.000000 0.000000 1.000000
      length 2.952750
      axis 0.0 0.0 0.0 xyz
      dof rx ry rz
   end
:hierarchy
   begin
      root Spine_dum LeftUpLeg_dum RightUpLeg_dum
      Spine_dum Spine
      LeftUpLeg_dum LeftUpLeg
      RightUpLeg_dum RightUpLeg
      Spine Spine_dum1 Spine_dum2 Spine_dum3
      Spine_dum1 Head
      Spine_dum2 LeftShoulder
      Spine_dum3 RightShoulder
      LeftShoulder LeftArm
      LeftArm LeftForeArm
      LeftForeArm LeftHand
      LeftHand LeftHand_dum1 LeftHand_dum2
      LeftHand_dum1 LeftHandThumb1
      RightShoulder RightArm
      RightArm RightForeArm
      RightForeArm RightHand
      RightHand RightHand_dum1 RightHand_dum2
      RightHand_dum1 RightHandThumb1
      LeftUpLeg LeftLeg
      LeftLeg LeftFoot
      LeftFoot LeftToeBase
      RightUpLeg RightLeg
      RightLeg RightFoot
      RightFoot RightToeBase
   end

# File created by Blade
# Date/Time:  Tue Jan 27 17:21:37 2015
# Frame Rate: 120.000 fps
#------------------------------------------------------
:FULLY-SPECIFIED
:DEGREES
3310
root -2.332354 36.207959 0.505619 23.701048 50.702387 21.469050
Spine 2.176530 -4.919642 -2.217600
Head 0.597208 0.318803 -6.963742
LeftShoulder -0.479482 -14.127992 6.507666
LeftArm 7.533872 -19.010567 -48.549368
LeftForeArm -6.884821 0.000000 65.994589
LeftHand -13.240586 -0.000000 45.727370
LeftHandThumb1 -26.253704 0.000000 33.147579
RightShoulder -7.127198 -18.755375 -3.012502
RightArm 2.621273 -14.962816 55.587991
RightForeArm 193.255752 -0.000000 32.513372
RightHand -0.122411 -0.000000 2.543714
RightHandThumb1 -24.326973 -0.000000 -32.862282
LeftUpLeg -45.472967 37.130119 4.835833
LeftLeg 108.418380 -0.000000 -0.000000
LeftFoot -12.106943 7.785018 -28.445113
LeftToeBase 13.556553 -0.000000 -0.000000
RightUpLeg -22.909737 -26.626545 -0.319429
RightLeg 33.854637 -0.000000 -0.000000
RightFoot -28.563736 -23.518680 8.030629
RightToeBase -1.529990 -0.000000 0.000000
3311
root -2.343591 36.196685 0.510474 23.531145 50.877427 21.259990
Spine 2.210601 -4.922708 -2.079008
Head 0.610786 0.211980 -6.768220
LeftShoulder -0.430189 -14.161157 6.630776
LeftArm 7.678644 -18.924833 -48.687304
LeftForeArm -6.921095 -0.000000 65.842997
LeftHand -13.152394 -0.000000 45.853207
LeftHandThumb1 -26.253704 0.000000 33.147579
RightShoulder -7.165316 -18.770417 -2.925529
RightArm 2.583628 -14.847486 55.494967
RightForeArm 193.384456 -0.000000 32.435487
RightHand -0.157262 0.000000 2.323963
RightHandThumb1 -24.326973 -0.000000 -32.862282
LeftUpLeg -46.174808 37.345012 4.431420
LeftLeg 108.620897 -0.000000 -0.000000
LeftFoot -12.553850 8.305972 -28.660245
LeftToeBase 13.471699 -0.000000 -0.000000
RightUpLeg -22.896997 -26.705476 -0.111135
RightLeg 33.852074 -0.000000 -0.000000
RightFoot -28.563014 -23.569459 8.031393
RightToeBase -1.556311 -0.000000 0.000000
3312
root -2.359646 36.184251 0.517460 23.336319 51.104494 21.029422
Spine 2.268379 -4.975515 -1.923005
Head 0.619999 0.120282 -6.539160
LeftShoulder -0.359228 -14.203269 6.764324
LeftArm 7.807454 -18.871775 -48.810926
LeftForeArm -6.963478 -0.000000 65.702094
LeftHand -13.093601 -0.000000 45.970934
LeftHandThumb1 -26.253704 0.000000 33.147579
RightShoulder -7.173016 -18.751456 -2.854392
RightArm 2.519378 -14.765397 55.436815
RightForeArm 193.483830 -0.000000 32.358835
RightHand -0.045462 -0.000000 2.664579
RightHandThumb1 -24.326973 -0.000000 -32.862282
LeftUpLeg -46.992102 37.569376 3.943043
LeftLeg 108.890872 -0.000000 -0.000000
LeftFoot -12.888606 8.981738 -28.565301
LeftToeBase 13.187765 -0.000000 -0.000000
RightUpLeg -22.853714 -26.766756 0.120850
RightLeg 33.817208 -0.000000 -0.000000
RightFoot -28.437674 -23.801741 7.850991
RightToeBase -1.797837 -0.000000 0.000000
3313
root -2.377891 36.171884 0.526443 23.046166 51.387906 20.772808
Spine 2.431968 -5.068695 -1.743595
Head 0.620630 0.004005 -6.297211
LeftShoulder -0.245350 -14.325730 6.909681
LeftArm 7.870415 -18.845292 -48.945119
LeftForeArm -6.900947 -0.000000 65.550079
LeftHand -13.040099 -0.000000 45.728827
LeftHandThumb1 -26.253704 0.000000 33.147579
RightShoulder -7.115367 -18.700080 -2.798480
RightArm 2.410811 -14.611612 55.423277
RightForeArm 193.524473 -0.000000 32.270588
RightHand -0.047398 -0.000000 2.761909
RightHandThumb1 -24.326973 -0.000000 -32.862282
LeftUpLeg -47.819751 37.775728 3.449560
LeftLeg 109.219647 -0.000000 -0.000000
LeftFoot -13.243217 9.580600 -28.614228
LeftToeBase 13.293346 -0.000000 -0.000000
RightUpLeg -22.716948 -26.839503 0.350005
RightLeg 33.771216 -0.000000 -0.000000
RightFoot -28.577744 -23.785836 8.041419
RightToeBase -1.573816 -0.000000 0.000000
3314
root -2.398148 36.160982 0.535030 22.831682 51.691442 20.539627
Spine 2.525655 -5.173537 -1.592121
Head 0.643749 -0.121288 -6.011650
LeftShoulder -0.127350 -14.415220 7.073607
LeftArm 7.979844 -18.837081 -49.103517
LeftForeArm -6.881540 -0.000000 65.390454
LeftHand -13.026212 -0.000000 45.957260
LeftHandThumb1 -26.253704 0.000000 33.147579
RightShoulder -7.096618 -18.661813 -2.682182
RightArm 2.319653 -14.453222 55.373763
RightForeArm 193.559956 -0.000000 32.173522
RightHand -0.051508 -0.000000 2.691368
RightHandThumb1 -24.326973 -0.000000 -32.862282
LeftUpLeg -48.826676 37.995448 2.775033
LeftLeg 109.574670 -0.000000 -0.000000
LeftFoot -13.529620 10.104324 -28.420608
LeftToeBase 13.739913 -0.000000 -0.000000
RightUpLeg -22.636679 -26.895635 0.595646
RightLeg 33.716209 -0.000000 -0.000000
RightFoot -28.445833 -24.081959 7.891698
RightToeBase -1.780783 -0.000000 0.000000
3315
root -2.421641 36.148316 0.544714 22.571040 52.035002 20.275531
Spine 2.656942 -5.279796 -1.410825
Head 0.650240 -0.251072 -5.700539
LeftShoulder 0.022864 -14.543441 7.238460
LeftArm 8.087564 -18.804705 -49.243817
LeftForeArm -6.879986 0.000000 65.184837
LeftHand -12.960552 -0.000000 45.812124
LeftHandThumb1 -26.253704 0.000000 33.147579
RightShoulder -7.079080 -18.630764 -2.584034
RightArm 2.234057 -14.273209 55.361786
RightForeArm 193.604900 -0.000000 32.070141
RightHand -0.074489 -0.000000 2.655455
RightHandThumb1 -24.326973 -0.000000 -32.862282
LeftUpLeg -49.957268 38.282676 1.996524
LeftLeg 109.979514 -0.000000 -0.000000
LeftFoot -13.580369 10.667730 -28.041795
LeftToeBase 13.605950 -0.000000 -0.000000
RightUpLeg -22.529769 -26.940184 0.860689
RightLeg 33.657603 -0.000000 -0.000000
RightFoot -28.456002 -24.261858 7.936078
RightToeBase -1.735966 -0.000000 0.000000
3316
root -2.448770 36.136435 0.559809 22.321087 52.438426 19.971394
Spine 2.745734 -5.426709 -1.200413
Head 0.628882 -0.418455 -5.352453
LeftShoulder 0.136465 -14.643673 7.420573
LeftArm 8.265864 -18.790168 -49.447418
LeftForeArm -6.852295 -0.000000 64.972181
LeftHand -12.819297 0.000000 45.985874
LeftHandThumb1 -26.253704 0.000000 33.147579
RightShoulder -7.092392 -18.570083 -2.438121
RightArm 2.120575 -14.089019 55.336652
RightForeArm 193.609707 -0.000000 31.969425
RightHand -0.066965 -0.000000 2.700186
RightHandThumb1 -24.326973 -0.000000 -32.862282
LeftUpLeg -51.271513 38.586202 1.086687
LeftLeg 110.394065 -0.000000 -0.000000
LeftFoot -13.639079 11.207532 -27.604094
LeftToeBase 13.804606 -0.000000 -0.000000
RightUpLeg -22.458840 -26.990061 1.198563
RightLeg 33.576925 -0.000000 -0.000000
RightFoot -28.600330 -24.333907 8.202562
RightToeBase -1.422378 -0.000000 0.000000
